<svg xmlns="http://www.w3.org/2000/svg" viewBox="0 0 6938.71 1302.37"><defs><style>.cls-1{fill:#009092;}.cls-2{fill:#005254;}.cls-3{fill:#006769;}.cls-4{fill:#007c7d;}.cls-5{fill:#00b9bc;}.cls-6{fill:#003e3f;}.cls-7{fill:#00a5a7;}</style></defs><g id="Ebene_2" data-name="Ebene 2"><g id="Ebene_1-2" data-name="Ebene 1"><polygon class="cls-1" points="296.34 513.27 296.34 171.09 0 342.18 296.34 513.27"/><polygon class="cls-2" points="592.68 0 889.02 171.09 592.68 342.18 592.68 0"/><polygon class="cls-3" points="592.68 342.18 592.68 0 296.34 171.09 592.68 342.18"/><polygon class="cls-4" points="296.34 171.09 592.68 342.18 296.34 513.27 296.34 171.09"/><polygon class="cls-5" points="296.34 855.46 296.34 513.27 0 684.37 296.34 855.46"/><polygon class="cls-6" points="889.02 513.27 889.02 171.09 592.68 342.18 889.02 513.27"/><polygon class="cls-7" points="0 342.18 296.34 513.27 0 684.37 0 342.18"/><polygon class="cls-2" points="296.34 1302.37 0 1131.28 296.34 960.19 296.34 1302.37"/><polygon class="cls-3" points="296.34 960.19 296.34 1302.37 592.68 1131.28 296.34 960.19"/><polygon class="cls-4" points="592.68 1131.28 296.34 960.19 592.68 789.1 592.68 1131.28"/><polygon class="cls-1" points="592.68 789.1 592.68 1131.28 889.02 960.19 592.68 789.1"/><polygon class="cls-5" points="592.68 446.92 592.68 789.1 889.02 618.01 592.68 446.92"/><polygon class="cls-6" points="0 789.1 0 1131.28 296.34 960.19 0 789.1"/><polygon class="cls-7" points="889.02 960.19 592.68 789.1 889.02 618.01 889.02 960.19"/><path class="cls-6" d="M1383.63,516.78l-10.5,57.75h466.2l-44.11,249.91a9,9,0,0,1-.53,2.62,9.07,9.07,0,0,0-.52,2.63q-10.5,46.21-47.78,78.23t-79.26,32H1130.58l27.3-154.35H1623l10.5-57.75h-466.2l44.09-249.9a9.07,9.07,0,0,1,.52-2.63,9,9,0,0,0,.53-2.62q10.5-46.2,47.78-78.22t79.28-32h537.6l-27.3,154.34Z"/><path class="cls-6" d="M2492.73,362.44q44.11,0,69.83,33.61t17.33,81.89L2519,824.44q-8.39,48.3-46.2,81.9t-81.89,33.6H1961.44q-44.12,0-69.83-33.6t-17.31-81.9l60.89-346.5q8.38-48.29,46.2-81.89t81.91-33.61ZM2346.8,785.59l47.25-268.81H2107.39l-47.25,268.81Z"/><path class="cls-6" d="M3250.32,785.59l-26.25,154.35H2686.46q-44.11,0-69.83-33.6t-17.31-81.9l81.89-462h178.5l-74.55,423.15Z"/><path class="cls-2" d="M3516.8,516.78l-9.45,57.75h384.29l-27.29,153.31h-384.3l-10.5,57.75h465.16l-26.25,154.35H3370.85q-44.11,0-69.83-33.6t-17.31-81.9l60.89-346.5q8.39-48.29,46.2-81.89t81.91-33.61H4010.3L3983,516.78Z"/><path class="cls-3" d="M4618.66,362.44q44.11,0,69.83,33.61t17.33,81.89l-27.3,154.34q-8.42,48.33-45.69,81.91t-81.36,33.59h-43.06L4625,939.94h-186.9L4321.52,747.78H4193.41l-34.64,192.16h-178.5l101.84-577.5Zm-112.34,231L4520,516.78H4233.32l-13.66,76.66Z"/><path class="cls-4" d="M4948.47,516.78,4939,574.53h384.3L5296,727.84H4911.72l-10.5,57.75h465.15l-26.25,154.35H4802.51q-44.1,0-69.82-33.6t-17.32-81.9l60.89-346.5q8.4-48.29,46.21-81.89t81.9-33.61H5442l-27.3,154.34Z"/><path class="cls-1" d="M6156.59,362.44l-81.89,462q-8.41,48.3-45.69,81.9t-81.37,33.6h-430.5q-44.12,0-69.83-33.6T5430,824.44l81.89-462h178.5l-74.55,423.15H5902.5L5977,362.44Z"/><path class="cls-7" d="M6936.64,477.94l-81.9,462h-178.5l52.5-302.41L6496.69,939.94l-126-302.41-52.5,302.41H6138.64l81.89-462q8.4-48.29,45.68-81.89t81.37-33.61h78.75l120.75,290.84,223.66-290.84h78.75q44.09,0,69.81,33.61T6936.64,477.94Z"/></g></g></svg>