<svg xmlns="http://www.w3.org/2000/svg" viewBox="0 0 5808.13 2557.53"><defs><style>.cls-1{fill:#009092;}.cls-2{fill:#005254;}.cls-3{fill:#006769;}.cls-4{fill:#007c7d;}.cls-5{fill:#00b9bc;}.cls-6{fill:#003e3f;}.cls-7{fill:#00a5a7;}</style></defs><g id="Ebene_2" data-name="Ebene 2"><g id="Ebene_1-2" data-name="Ebene 1"><polygon class="cls-1" points="2704.92 689.85 2704.92 229.95 2306.64 459.9 2704.92 689.85"/><polygon class="cls-2" points="3103.21 0 3501.49 229.95 3103.21 459.9 3103.21 0"/><polygon class="cls-3" points="3103.21 459.9 3103.21 0 2704.92 229.95 3103.21 459.9"/><polygon class="cls-4" points="2704.92 229.95 3103.21 459.9 2704.92 689.85 2704.92 229.95"/><polygon class="cls-5" points="2704.92 1149.74 2704.92 689.85 2306.64 919.79 2704.92 1149.74"/><polygon class="cls-6" points="3501.49 689.85 3501.49 229.95 3103.2 459.9 3501.49 689.85"/><polygon class="cls-7" points="2306.64 459.9 2704.92 689.85 2306.64 919.79 2306.64 459.9"/><polygon class="cls-2" points="2704.92 1750.4 2306.64 1520.45 2704.92 1290.51 2704.92 1750.4"/><polygon class="cls-3" points="2704.92 1290.51 2704.92 1750.4 3103.2 1520.45 2704.92 1290.51"/><polygon class="cls-4" points="3103.2 1520.45 2704.92 1290.51 3103.2 1060.56 3103.2 1520.45"/><polygon class="cls-1" points="3103.2 1060.56 3103.2 1520.45 3501.49 1290.51 3103.2 1060.56"/><polygon class="cls-5" points="3103.2 600.66 3103.2 1060.56 3501.49 830.61 3103.2 600.66"/><polygon class="cls-6" points="2306.64 1060.56 2306.64 1520.45 2704.92 1290.51 2306.64 1060.56"/><polygon class="cls-7" points="3501.49 1290.51 3103.2 1060.56 3501.49 830.61 3501.49 1290.51"/><path class="cls-6" d="M253.05,2134.37l-10.5,57.75h466.2L664.64,2442a9,9,0,0,1-.53,2.62,9.07,9.07,0,0,0-.52,2.63q-10.5,46.21-47.78,78.23t-79.26,32H0l27.3-154.35H492.45l10.5-57.75H36.75l44.09-249.9a9.07,9.07,0,0,1,.52-2.63,9,9,0,0,0,.53-2.62q10.5-46.2,47.78-78.22T209,1980h537.6l-27.3,154.34Z"/><path class="cls-6" d="M1362.15,1980q44.11,0,69.83,33.61t17.33,81.89L1388.4,2442q-8.39,48.3-46.2,81.9t-81.89,33.6H830.86q-44.11,0-69.83-33.6T743.72,2442l60.89-346.5q8.39-48.29,46.2-81.89T932.72,1980Zm-145.93,423.15,47.25-268.81H976.81l-47.25,268.81Z"/><path class="cls-6" d="M2119.74,2403.18l-26.25,154.35H1555.88q-44.12,0-69.83-33.6t-17.31-81.9l81.89-462h178.5l-74.55,423.15Z"/><path class="cls-2" d="M2386.22,2134.37l-9.45,57.75h384.29l-27.29,153.31h-384.3l-10.5,57.75h465.15l-26.25,154.35h-537.6q-44.11,0-69.83-33.6t-17.32-81.9l60.9-346.5q8.39-48.29,46.2-81.89t81.9-33.61h537.6l-27.3,154.34Z"/><path class="cls-3" d="M3488.08,1980q44.11,0,69.83,33.61t17.33,81.89l-27.3,154.34q-8.42,48.33-45.69,81.91t-81.36,33.59h-43.06l116.56,192.16h-186.9l-116.55-192.16H3062.83l-34.64,192.16h-178.5L2951.53,1980Zm-112.34,231,13.65-76.66H3102.74L3089.08,2211Z"/><path class="cls-4" d="M3817.89,2134.37l-9.46,57.75h384.3l-27.3,153.31H3781.14l-10.5,57.75h465.15l-26.25,154.35H3671.93q-44.1,0-69.82-33.6t-17.32-81.9l60.89-346.5q8.4-48.29,46.21-81.89t81.9-33.61h537.6l-27.3,154.34Z"/><path class="cls-1" d="M5026,1980l-81.89,462q-8.41,48.3-45.69,81.9t-81.37,33.6h-430.5q-44.12,0-69.83-33.6t-17.31-81.9l81.89-462h178.5l-74.55,423.15h286.66L4846.46,1980Z"/><path class="cls-7" d="M5806.06,2095.53l-81.9,462h-178.5l52.5-302.41-232.05,302.41-126-302.41-52.5,302.41H5008.06l81.89-462q8.4-48.29,45.67-81.89T5217,1980h78.75l120.75,290.84L5640.16,1980h78.75q44.09,0,69.81,33.61T5806.06,2095.53Z"/></g></g></svg>